<svg width="145" height="145" fill="none" xmlns="http://www.w3.org/2000/svg"><g clip-path="url(#clip0_2_25)"><path d="M72.5 145c40.041 0 72.5-32.459 72.5-72.5C145 32.46 112.541 0 72.5 0 32.46 0 0 32.46 0 72.5 0 112.541 32.46 145 72.5 145z" fill="#fff"/><path d="M72.5 123.37c28.095 0 50.87-22.775 50.87-50.87S100.595 21.63 72.5 21.63 21.63 44.405 21.63 72.5s22.775 50.87 50.87 50.87z" fill="url(#paint0_linear_2_25)"/><path d="M48.504 102.21c-.15-.19-.36-.36-.44-.58-.24-.63.22-1.16 1-1.16h13.72c0-.83.01-1.63-.01-2.43 0-.12-.18-.28-.31-.33-3.24-1.36-5.77-3.55-7.64-6.52-.11-.18-.42-.32-.64-.32-1.47-.03-2.94 0-4.41-.02-1.18 0-1.76-.56-1.76-1.73-.01-2.8-.01-5.61 0-8.41 0-1.14.6-1.7 1.73-1.7.83 0 1.66-.01 2.5 0 .32 0 .42-.1.47-.42.92-5.2 3.69-9.08 8.3-11.65.35-.2.48-.41.48-.81-.02-1.88-.01-3.75 0-5.63 0-1.45.94-2.15 2.29-1.64.88.33 1.74.74 2.55 1.23.79.48 1.49 1.09 2.14 1.57.6-.79 1.23-1.6 1.84-2.43.1-.14.15-.35.16-.52.02-.54 0-1.08.01-1.62.02-.62.36-.98.91-.97.53.01.82.34.86.96.01.25 0 .49 0 .77.78-.21 1.5-.41 2.27-.62v-2.57c0-.67.34-1.07.87-1.07.54 0 .87.41.88 1.07v2.6l2.06.59c.02-.14.02-.29.06-.43.13-.46.41-.74.92-.71.5.03.86.34.79.81-.15 1.12.36 1.89 1.04 2.71 1.06 1.27 1.49 2.82 1.39 4.49-.03.44.08.62.55.73 1.86.42 3.59 1.18 5.17 2.25.58.39.74.91.43 1.36-.31.46-.8.52-1.37.14a14.441 14.441 0 00-5.14-2.14c-.49.78-.97 1.56-1.5 2.41h.7c.62.01 1.02.35 1.02.86 0 .53-.41.88-1.07.88h-11.61c-.71 0-1.12-.33-1.11-.89 0-.53.39-.83 1.08-.86.08 0 .15-.01.28-.02-.09-.14-.15-.25-.23-.35-1.14-1.36-1.66-2.94-1.71-4.69 0-.2-.03-.44-.14-.59-1.18-1.55-2.74-2.57-4.64-3.27v1.72c0 1.51-.03 3.02.01 4.53.02.72-.25 1.12-.89 1.44-3.76 1.86-6.28 4.81-7.5 8.83-.27.88-.39 1.81-.55 2.72-.12.7-.36.95-1.05.96h-3.45v8.36h4c2.21 0 1.67-.18 2.74 1.47 1.73 2.69 4.13 4.57 7.11 5.7.79.3.88.42.88 1.28v2.87c.16.02.29.05.42.05h4.64c.34 0 .47-.1.51-.45.07-.69.19-1.38.3-2.06.08-.52.4-.77.92-.78.46 0 .93-.02 1.39 0 .55.02.91.36.93.84.02.48-.38.88-.93.92-.21.01-.42 0-.67 0-.08.51-.16.98-.24 1.49h7.45c-.08-.5-.15-.98-.23-1.49h-2.02c-.65 0-1.07-.36-1.08-.89 0-.53.4-.87 1.07-.88.89-.01 1.78-.02 2.67-.02.55 0 .93.24 1.01.82.1.69.19 1.38.32 2.06.03.16.21.41.32.41 1.72.03 3.43.02 5.22.02 0-1.22.07-2.4-.02-3.57-.09-1.16.29-1.86 1.26-2.58 3.85-2.82 5.76-6.69 5.87-11.46.06-2.63-.09-5.23-1.29-7.63-.57-1.13-1.34-2.16-1.98-3.26-.16-.28-.3-.7-.22-.99.21-.7 1-.77 1.52-.17 1.22 1.42 2.11 3.04 2.77 4.79.92 2.44 1.04 4.97.95 7.53-.18 5.36-2.46 9.6-6.75 12.79-.15.11-.34.31-.34.48-.03 1.33-.02 2.66-.02 4.06h5.89c.49 0 .95.02 1.17.54.21.51-.08.88-.43 1.21h-46.44l.02.01zm26.77-32.74c.39 0 .78-.05 1.16 0 1.04.15 1.84-.32 2.55-.98 1.42-1.34 2.02-2.97 1.7-4.92-.36-2.2-2.06-3.99-4.19-4.43-2.28-.47-4.57.46-5.8 2.36-1.23 1.91-1.18 4.37.19 6.19.86 1.14 1.89 1.99 3.46 1.78.3-.04.62 0 .93 0z" fill="#fff"/><path d="M65.33 42.79c3.12 0 5.86 1.93 6.88 4.84.28.79.12 1.32-.44 1.51-.54.18-.95-.13-1.23-.91-.78-2.19-2.83-3.68-5.11-3.7-2.28-.02-4.39 1.43-5.2 3.58-1.01 2.69.24 5.69 2.88 6.89 2.62 1.2 5.71.17 7.08-2.37.09-.17.17-.35.25-.52.28-.57.73-.79 1.22-.58.48.2.65.7.4 1.28-1.02 2.38-2.82 3.86-5.35 4.33-4.59.85-8.68-2.69-8.59-7.36.07-3.83 3.34-7 7.22-7l-.01.01zM54.26 56.96c2.12 0 3.92 1.77 3.94 3.9.02 2.14-1.81 3.97-3.95 3.95-2.13-.02-3.91-1.81-3.91-3.93s1.8-3.91 3.92-3.92zm.02 6.05c1.2 0 2.12-.93 2.12-2.12 0-1.2-.91-2.12-2.11-2.13-1.22 0-2.16.93-2.14 2.16.01 1.2.94 2.1 2.14 2.1l-.01-.01zm38.23-5.99c-.06 2.17-1.83 3.89-3.96 3.85-2.19-.04-3.9-1.86-3.85-4.09.04-2.07 1.91-3.83 4-3.76 2.16.07 3.87 1.86 3.82 4h-.01zm-1.77-.1c0-1.19-.95-2.11-2.15-2.1-1.19 0-2.14.96-2.14 2.13 0 1.19.98 2.15 2.2 2.13 1.19-.02 2.1-.96 2.09-2.16z" fill="#fff"/><path d="M69.27 50.04c0 2.19-1.75 3.9-3.96 3.89-2.14-.01-3.85-1.76-3.84-3.95 0-2.15 1.76-3.88 3.93-3.86 2.18.02 3.88 1.74 3.87 3.91v.01zm-1.76-.03c0-1.18-.96-2.12-2.14-2.12-1.17 0-2.15.96-2.16 2.12 0 1.17 1.02 2.19 2.19 2.17 1.16-.02 2.12-1.01 2.11-2.17zm-9.07 30.62v-2.14c.01-.58.37-.95.87-.94.5 0 .86.39.87.96 0 1.47.01 2.93 0 4.4 0 .56-.39.95-.88.95s-.85-.39-.86-.97c-.01-.75 0-1.51 0-2.26zm22.43-26.46c0 .49-.38.89-.85.9-.47 0-.89-.4-.9-.87-.01-.47.39-.88.87-.89.51 0 .88.35.88.85v.01zm-3.85-3.24c0 .48-.38.89-.86.9a.864.864 0 01-.88-.86c-.01-.5.35-.88.85-.88s.89.36.9.85l-.01-.01zm-1.03 17.43c-2.23-.06-3.91-1.85-3.83-4.08.07-2.05 1.92-3.77 3.99-3.72 2.15.05 3.9 1.87 3.83 3.98-.07 2.18-1.84 3.88-3.99 3.82zm.06-6c-1.19 0-2.15.96-2.14 2.13.01 1.17.98 2.1 2.17 2.1s2.12-.94 2.12-2.13-.94-2.11-2.15-2.1z" fill="#fff"/></g><defs><linearGradient id="paint0_linear_2_25" x1="81.1" y1="32.24" x2="48.34" y2="185.58" gradientUnits="userSpaceOnUse"><stop stop-color="#DC7C93"/><stop offset=".09" stop-color="#D37A93"/><stop offset=".24" stop-color="#BC7594"/><stop offset=".43" stop-color="#976D95"/><stop offset=".65" stop-color="#636197"/><stop offset=".89" stop-color="#21539A"/><stop offset="1" stop-color="#004C9C"/></linearGradient><clipPath id="clip0_2_25"><path fill="#fff" d="M0 0h145v145H0z"/></clipPath></defs></svg>