<svg width="289" height="86" fill="none" xmlns="http://www.w3.org/2000/svg"><path d="M39.041 47.853c-.91 0-1.64-.74-1.64-1.64v-11.68c0-.51.23-.99.64-1.3l12.84-9.95a1.63 1.63 0 012.3.29c.56.72.43 1.75-.29 2.3l-12.2 9.46v10.88c0 .91-.74 1.64-1.64 1.64h-.01z" fill="url(#paint0_linear_2_4)"/><path d="M51.871 78.993c-.91 0-1.64-.74-1.64-1.64v-60.12c0-.63.36-1.2.92-1.47s1.23-.21 1.73.18l12.84 9.95c.4.31.64.79.64 1.3v19.54c0 .91-.74 1.64-1.64 1.64-.9 0-1.64-.74-1.64-1.64v-18.74l-9.55-7.41v56.77c0 .91-.74 1.64-1.64 1.64h-.02z" fill="url(#paint1_linear_2_4)"/><path d="M57.901 57.413c-.91 0-1.64-.74-1.64-1.64V4.993l-9.55 7.41v42.65c0 .91-.74 1.64-1.64 1.64-.9 0-1.64-.74-1.64-1.64v-43.45c0-.51.23-.99.64-1.3l12.82-9.96c.49-.38 1.17-.45 1.73-.18.56.28.92.85.92 1.47v54.13c0 .91-.74 1.64-1.64 1.64v.01z" fill="url(#paint2_linear_2_4)"/><path d="M51.811 83.743c-.12 0-.24-.01-.36-.04-16.3-3.66-28.45-14.64-35.13-31.75-5-12.8-5.18-24.36-5.19-24.84 0-.57.28-1.1.76-1.4a1.64 1.64 0 011.59-.1c22.68 10.79 32.34 25.56 36.45 36.05 4.49 11.45 3.55 20.26 3.51 20.63a1.634 1.634 0 01-1.63 1.45zm-37.23-53.94c.35 4.12 1.44 12.37 4.84 21.04 6.09 15.54 16.46 25.35 30.84 29.18.02-3.08-.39-9.61-3.45-17.34-3.76-9.5-12.4-22.74-32.23-32.88z" fill="url(#paint3_linear_2_4)"/><path d="M40.821 85.083c-15.45 0-25.16-7.15-30.88-13.86-7.55-8.88-9.81-18.67-9.9-19.09-.11-.49 0-1 .32-1.39.31-.39.78-.61 1.28-.61 24.18.07 36.99 8.65 43.48 15.84 7.11 7.88 8.38 15.72 8.43 16.05.13.87-.44 1.69-1.3 1.86-4.12.83-7.93 1.19-11.43 1.19v.01zm-36.99-31.63c1.04 3.23 3.6 9.78 8.7 15.73 9.05 10.57 21.63 14.54 37.41 11.8-.71-2.52-2.65-7.76-7.38-12.95-8.32-9.12-21.68-14.14-38.72-14.58h-.01z" fill="url(#paint4_linear_2_4)"/><path d="M51.931 83.743a1.634 1.634 0 01-1.63-1.45c-.04-.37-.98-9.18 3.51-20.63 4.11-10.49 13.77-25.27 36.45-36.05a1.64 1.64 0 011.59.1c.48.31.76.84.76 1.4 0 .49-.19 12.04-5.19 24.84-6.68 17.11-18.82 28.09-35.13 31.75-.12.03-.24.04-.36.04zm37.23-53.94c-19.83 10.14-28.47 23.38-32.23 32.88-3.06 7.73-3.46 14.26-3.45 17.34 14.38-3.83 24.75-13.64 30.84-29.18 3.4-8.67 4.49-16.92 4.84-21.04z" fill="url(#paint5_linear_2_4)"/><path d="M62.921 85.083c-3.51 0-7.31-.37-11.43-1.19-.86-.17-1.43-.99-1.3-1.86.05-.33 1.32-8.17 8.43-16.05 6.49-7.19 19.3-15.77 43.48-15.84.5 0 .97.23 1.28.61.31.39.43.9.32 1.39-.09.41-2.35 10.21-9.9 19.08-5.72 6.72-15.43 13.86-30.88 13.86zm-9.12-4.1c15.78 2.74 28.36-1.22 37.41-11.8 5.09-5.95 7.65-12.5 8.69-15.73-17.04.44-30.4 5.46-38.72 14.58-4.73 5.18-6.67 10.42-7.38 12.95z" fill="url(#paint6_linear_2_4)"/><path d="M132.331 28.513c3.13 0 5.37 1.12 6.84 2.95 1.42 1.89 2.06 4.48 2.06 7.49v2.12c0 .71-.59 1.3-1.3 1.3-.71 0-1.3-.59-1.3-1.3v-2.3c0-2.18-.41-4.13-1.42-5.54-1-1.42-2.54-2.24-4.84-2.24s-3.83.83-4.84 2.24c-1 1.42-1.42 3.36-1.42 5.54v21.47c0 2.18.41 4.13 1.42 5.48 1 1.42 2.54 2.24 4.84 2.24s3.83-.83 4.84-2.24c1-1.36 1.42-3.3 1.42-5.48v-3.6c0-.71.59-1.3 1.3-1.3.71 0 1.3.59 1.3 1.3v3.42c0 3.01-.65 5.6-2.06 7.43-1.47 1.89-3.72 3.01-6.84 3.01-3.12 0-5.37-1.12-6.78-3.01-1.47-1.83-2.12-4.42-2.12-7.43v-21.11c0-3.01.65-5.6 2.12-7.49 1.42-1.83 3.66-2.95 6.78-2.95zm22.17 0c3.13 0 5.37 1.12 6.84 2.95 1.42 1.89 2.06 4.48 2.06 7.49v1c0 3.72-1.59 6.72-4.54 8.14-.41.24-.41.59 0 .77 3.13 1.36 4.54 4.31 4.54 8.02v3.18c0 3.01-.65 5.6-2.06 7.43-1.47 1.89-3.72 3.01-6.84 3.01-3.12 0-5.37-1.12-6.78-3.01-1.47-1.83-2.12-4.42-2.12-7.43v-2.83c0-.71.59-1.3 1.3-1.3.71 0 1.3.59 1.3 1.3v2.95c0 2.3.41 4.19 1.42 5.6 1 1.42 2.54 2.24 4.84 2.24 4.54 0 6.25-3.3 6.25-8.02v-3.19c0-4.31-2.12-6.78-6.13-6.96h-1.53c-.71 0-1.24-.53-1.24-1.24s.53-1.24 1.24-1.24h1.65c3.77-.24 6.02-2.89 6.02-6.9v-1.47c0-4.72-1.71-8.02-6.25-8.02s-6.25 3.3-6.25 7.78v1.53c0 .71-.59 1.3-1.3 1.3-.71 0-1.3-.59-1.3-1.3v-1.36c0-3.01.65-5.6 2.12-7.49 1.42-1.83 3.66-2.95 6.78-2.95l-.02.02zm40.28 2.77h-8.91c-.35 0-.59.24-.59.59l-1.06 28.13c-.18 2.83-.41 5.31-1.42 7.14-1 1.83-2.77 2.95-5.84 3.01-.71 0-1.3-.59-1.3-1.3 0-.65.59-1.24 1.24-1.24 2.36-.06 3.19-1.06 3.77-2.24.65-1.36.77-3.24.83-5.31l1.18-29.55c0-.94.83-1.71 1.77-1.71h11.91c1 0 1.77.77 1.77 1.77v38.1c0 .77-.65 1.42-1.36 1.42-.77 0-1.42-.65-1.42-1.42v-36.8c0-.35-.24-.59-.59-.59h.02zm7.96 28.78v-21.11c0-3.01.71-5.6 2.18-7.49 1.42-1.83 3.72-2.95 6.84-2.95 3.12 0 5.49 1.12 6.96 2.95 1.47 1.89 2.18 4.48 2.18 7.49v21.11c0 3.01-.71 5.6-2.18 7.43-1.47 1.89-3.83 3.01-6.96 3.01s-5.43-1.12-6.84-3.01c-1.47-1.83-2.18-4.42-2.18-7.43zm2.71-21.29v21.47c0 4.48 1.77 7.78 6.31 7.78 4.54 0 6.43-3.3 6.43-7.78v-21.47c0-4.48-1.89-7.78-6.43-7.78s-6.31 3.3-6.31 7.78zm28.43 31.38c-.77 0-1.36-.59-1.36-1.36v-36.56c0-.47-.41-.88-.88-.88h-6.31c-.71 0-1.24-.53-1.24-1.24s.53-1.24 1.24-1.24h17.04c.71 0 1.24.53 1.24 1.24s-.53 1.24-1.24 1.24h-6.25c-.47 0-.88.41-.88.88v36.56c0 .77-.59 1.36-1.36 1.36zm14.21-10.09v-21.11c0-3.01.71-5.6 2.18-7.49 1.42-1.83 3.72-2.95 6.84-2.95 3.12 0 5.49 1.12 6.96 2.95 1.47 1.89 2.18 4.48 2.18 7.49v21.11c0 3.01-.71 5.6-2.18 7.43-1.47 1.89-3.83 3.01-6.96 3.01s-5.43-1.12-6.84-3.01c-1.47-1.83-2.18-4.42-2.18-7.43zm2.71-21.29v21.47c0 4.48 1.77 7.78 6.31 7.78 4.54 0 6.43-3.3 6.43-7.78v-21.47c0-4.48-1.89-7.78-6.43-7.78s-6.31 3.3-6.31 7.78zm28.66-10.26c3.13 0 5.37 1.12 6.84 2.95 1.42 1.89 2.06 4.48 2.06 7.49v2.12c0 .71-.59 1.3-1.3 1.3-.71 0-1.3-.59-1.3-1.3v-2.3c0-2.18-.41-4.13-1.42-5.54-1-1.42-2.54-2.24-4.84-2.24s-3.83.83-4.84 2.24c-1 1.42-1.42 3.36-1.42 5.54v21.47c0 2.18.41 4.13 1.42 5.48 1 1.42 2.54 2.24 4.84 2.24s3.83-.83 4.84-2.24c1-1.36 1.42-3.3 1.42-5.48v-3.6c0-.71.59-1.3 1.3-1.3.71 0 1.3.59 1.3 1.3v3.42c0 3.01-.65 5.6-2.06 7.43-1.47 1.89-3.72 3.01-6.84 3.01-3.12 0-5.37-1.12-6.78-3.01-1.47-1.83-2.12-4.42-2.12-7.43v-21.11c0-3.01.65-5.6 2.12-7.49 1.42-1.83 3.66-2.95 6.78-2.95z" fill="#1D1D1B"/><defs><linearGradient id="paint0_linear_2_4" x1="45.461" y1="7.693" x2="45.461" y2="86.903" gradientUnits="userSpaceOnUse"><stop stop-color="#DC7C93"/><stop offset=".09" stop-color="#D37A93"/><stop offset=".24" stop-color="#BC7594"/><stop offset=".43" stop-color="#976D95"/><stop offset=".65" stop-color="#636197"/><stop offset=".89" stop-color="#21539A"/><stop offset="1" stop-color="#004C9C"/></linearGradient><linearGradient id="paint1_linear_2_4" x1="58.291" y1="7.693" x2="58.291" y2="86.903" gradientUnits="userSpaceOnUse"><stop stop-color="#DC7C93"/><stop offset=".09" stop-color="#D37A93"/><stop offset=".24" stop-color="#BC7594"/><stop offset=".43" stop-color="#976D95"/><stop offset=".65" stop-color="#636197"/><stop offset=".89" stop-color="#21539A"/><stop offset="1" stop-color="#004C9C"/></linearGradient><linearGradient id="paint2_linear_2_4" x1="51.481" y1="7.693" x2="51.481" y2="86.903" gradientUnits="userSpaceOnUse"><stop stop-color="#DC7C93"/><stop offset=".09" stop-color="#D37A93"/><stop offset=".24" stop-color="#BC7594"/><stop offset=".43" stop-color="#976D95"/><stop offset=".65" stop-color="#636197"/><stop offset=".89" stop-color="#21539A"/><stop offset="1" stop-color="#004C9C"/></linearGradient><linearGradient id="paint3_linear_2_4" x1="32.341" y1="7.693" x2="32.341" y2="86.903" gradientUnits="userSpaceOnUse"><stop stop-color="#DC7C93"/><stop offset=".09" stop-color="#D37A93"/><stop offset=".24" stop-color="#BC7594"/><stop offset=".43" stop-color="#976D95"/><stop offset=".65" stop-color="#636197"/><stop offset=".89" stop-color="#21539A"/><stop offset="1" stop-color="#004C9C"/></linearGradient><linearGradient id="paint4_linear_2_4" x1="26.791" y1="7.693" x2="26.791" y2="86.903" gradientUnits="userSpaceOnUse"><stop stop-color="#DC7C93"/><stop offset=".09" stop-color="#D37A93"/><stop offset=".24" stop-color="#BC7594"/><stop offset=".43" stop-color="#976D95"/><stop offset=".65" stop-color="#636197"/><stop offset=".89" stop-color="#21539A"/><stop offset="1" stop-color="#004C9C"/></linearGradient><linearGradient id="paint5_linear_2_4" x1="71.401" y1="7.693" x2="71.401" y2="86.903" gradientUnits="userSpaceOnUse"><stop stop-color="#DC7C93"/><stop offset=".09" stop-color="#D37A93"/><stop offset=".24" stop-color="#BC7594"/><stop offset=".43" stop-color="#976D95"/><stop offset=".65" stop-color="#636197"/><stop offset=".89" stop-color="#21539A"/><stop offset="1" stop-color="#004C9C"/></linearGradient><linearGradient id="paint6_linear_2_4" x1="76.951" y1="7.693" x2="76.951" y2="86.903" gradientUnits="userSpaceOnUse"><stop stop-color="#DC7C93"/><stop offset=".09" stop-color="#D37A93"/><stop offset=".24" stop-color="#BC7594"/><stop offset=".43" stop-color="#976D95"/><stop offset=".65" stop-color="#636197"/><stop offset=".89" stop-color="#21539A"/><stop offset="1" stop-color="#004C9C"/></linearGradient></defs></svg>