<!-- svg спрайты -->
<svg xmlns="http://www.w3.org/2000/svg" display="none"> 

	<!-- logo  -->
	<symbol id="logo" viewBox="0 0 289 86">  
<path d="M39.0414 47.8527C38.1314 47.8527 37.4014 47.1127 37.4014 46.2127V34.5327C37.4014 34.0227 37.6314 33.5427 38.0414 33.2327L50.8814 23.2827C51.6014 22.7227 52.6314 22.8527 53.1814 23.5727C53.7414 24.2927 53.6114 25.3227 52.8914 25.8727L40.6914 35.3327V46.2127C40.6914 47.1227 39.9514 47.8527 39.0514 47.8527H39.0414Z" fill="url(#paint0_linear_2_4)"/>
<path d="M51.8714 78.9927C50.9614 78.9927 50.2314 78.2527 50.2314 77.3527V17.2327C50.2314 16.6027 50.5914 16.0327 51.1514 15.7627C51.7114 15.4927 52.3814 15.5527 52.8814 15.9427L65.7214 25.8927C66.1214 26.2027 66.3614 26.6827 66.3614 27.1927V46.7327C66.3614 47.6427 65.6214 48.3727 64.7214 48.3727C63.8214 48.3727 63.0814 47.6327 63.0814 46.7327V27.9927L53.5314 20.5827V77.3527C53.5314 78.2627 52.7914 78.9927 51.8914 78.9927H51.8714Z" fill="url(#paint1_linear_2_4)"/>
<path d="M57.9014 57.4127C56.9914 57.4127 56.2614 56.6727 56.2614 55.7727V4.99274L46.7114 12.4027V55.0527C46.7114 55.9627 45.9714 56.6927 45.0714 56.6927C44.1714 56.6927 43.4314 55.9527 43.4314 55.0527V11.6027C43.4314 11.0927 43.6614 10.6127 44.0714 10.3027L56.8914 0.342738C57.3814 -0.0372621 58.0614 -0.107262 58.6214 0.162738C59.1814 0.442738 59.5414 1.01274 59.5414 1.63274V55.7627C59.5414 56.6727 58.8014 57.4027 57.9014 57.4027V57.4127Z" fill="url(#paint2_linear_2_4)"/>
<path d="M51.8114 83.7427C51.6914 83.7427 51.5714 83.7327 51.4514 83.7027C35.1514 80.0427 23.0014 69.0627 16.3214 51.9527C11.3214 39.1527 11.1414 27.5927 11.1314 27.1127C11.1314 26.5427 11.4114 26.0127 11.8914 25.7127C12.3714 25.4027 12.9714 25.3727 13.4814 25.6127C36.1614 36.4027 45.8214 51.1727 49.9314 61.6627C54.4214 73.1127 53.4814 81.9227 53.4414 82.2927C53.3914 82.7527 53.1414 83.1727 52.7614 83.4427C52.4814 83.6427 52.1514 83.7427 51.8114 83.7427ZM14.5814 29.8027C14.9314 33.9227 16.0214 42.1727 19.4214 50.8427C25.5114 66.3827 35.8814 76.1927 50.2614 80.0227C50.2814 76.9427 49.8714 70.4127 46.8114 62.6827C43.0514 53.1827 34.4114 39.9427 14.5814 29.8027Z" fill="url(#paint3_linear_2_4)"/>
<path d="M40.8214 85.0828C25.3714 85.0828 15.6614 77.9328 9.94141 71.2228C2.39141 62.3428 0.131408 52.5528 0.0414076 52.1328C-0.0685924 51.6428 0.0414076 51.1328 0.361408 50.7428C0.671408 50.3528 1.14141 50.1328 1.64141 50.1328C25.8214 50.2028 38.6314 58.7828 45.1214 65.9728C52.2314 73.8528 53.5014 81.6927 53.5514 82.0227C53.6814 82.8927 53.1114 83.7127 52.2514 83.8827C48.1314 84.7127 44.3214 85.0728 40.8214 85.0728V85.0828ZM3.83141 53.4528C4.87141 56.6828 7.43141 63.2328 12.5314 69.1828C21.5814 79.7528 34.1614 83.7228 49.9414 80.9828C49.2314 78.4628 47.2914 73.2227 42.5614 68.0327C34.2414 58.9127 20.8814 53.8928 3.84141 53.4528H3.83141Z" fill="url(#paint4_linear_2_4)"/>
<path d="M51.9314 83.7427C51.5914 83.7427 51.2614 83.6427 50.9814 83.4427C50.6014 83.1727 50.3514 82.7527 50.3014 82.2927C50.2614 81.9227 49.3214 73.1127 53.8114 61.6627C57.9214 51.1727 67.5814 36.3927 90.2614 25.6127C90.7714 25.3727 91.3714 25.4027 91.8514 25.7127C92.3314 26.0227 92.6114 26.5527 92.6114 27.1127C92.6114 27.6027 92.4214 39.1527 87.4214 51.9527C80.7414 69.0627 68.6014 80.0427 52.2914 83.7027C52.1714 83.7327 52.0514 83.7427 51.9314 83.7427ZM89.1614 29.8027C69.3314 39.9427 60.6914 53.1827 56.9314 62.6827C53.8714 70.4127 53.4714 76.9427 53.4814 80.0227C67.8614 76.1927 78.2314 66.3827 84.3214 50.8427C87.7214 42.1727 88.8114 33.9227 89.1614 29.8027Z" fill="url(#paint5_linear_2_4)"/>
<path d="M62.9214 85.0828C59.4114 85.0828 55.6114 84.7128 51.4914 83.8928C50.6314 83.7228 50.0614 82.9028 50.1914 82.0328C50.2414 81.7028 51.5114 73.8628 58.6214 65.9828C65.1114 58.7928 77.9214 50.2128 102.101 50.1428C102.601 50.1428 103.071 50.3728 103.381 50.7528C103.691 51.1428 103.811 51.6528 103.701 52.1428C103.611 52.5528 101.351 62.3528 93.8014 71.2228C88.0814 77.9428 78.3714 85.0828 62.9214 85.0828ZM53.8014 80.9828C69.5814 83.7228 82.1614 79.7628 91.2114 69.1828C96.3014 63.2328 98.8614 56.6828 99.9014 53.4528C82.8614 53.8928 69.5014 58.9128 61.1814 68.0328C56.4514 73.2128 54.5114 78.4528 53.8014 80.9828Z" fill="url(#paint6_linear_2_4)"/>
<path d="M132.331 28.5127C135.461 28.5127 137.701 29.6327 139.171 31.4627C140.591 33.3527 141.231 35.9427 141.231 38.9527V41.0727C141.231 41.7827 140.641 42.3727 139.931 42.3727C139.221 42.3727 138.631 41.7827 138.631 41.0727V38.7727C138.631 36.5927 138.221 34.6427 137.211 33.2327C136.211 31.8127 134.671 30.9927 132.371 30.9927C130.071 30.9927 128.541 31.8227 127.531 33.2327C126.531 34.6527 126.111 36.5927 126.111 38.7727V60.2427C126.111 62.4227 126.521 64.3727 127.531 65.7227C128.531 67.1427 130.071 67.9627 132.371 67.9627C134.671 67.9627 136.201 67.1327 137.211 65.7227C138.211 64.3627 138.631 62.4227 138.631 60.2427V56.6427C138.631 55.9327 139.221 55.3427 139.931 55.3427C140.641 55.3427 141.231 55.9327 141.231 56.6427V60.0627C141.231 63.0727 140.581 65.6627 139.171 67.4927C137.701 69.3827 135.451 70.5027 132.331 70.5027C129.211 70.5027 126.961 69.3827 125.551 67.4927C124.081 65.6627 123.431 63.0727 123.431 60.0627V38.9527C123.431 35.9427 124.081 33.3527 125.551 31.4627C126.971 29.6327 129.211 28.5127 132.331 28.5127Z" fill="#1D1D1B"/>
<path d="M154.501 28.5127C157.631 28.5127 159.871 29.6327 161.341 31.4627C162.761 33.3527 163.401 35.9427 163.401 38.9527V39.9527C163.401 43.6727 161.811 46.6727 158.861 48.0927C158.451 48.3327 158.451 48.6827 158.861 48.8627C161.991 50.2227 163.401 53.1727 163.401 56.8827V60.0627C163.401 63.0727 162.751 65.6627 161.341 67.4927C159.871 69.3827 157.621 70.5027 154.501 70.5027C151.381 70.5027 149.131 69.3827 147.721 67.4927C146.251 65.6627 145.601 63.0727 145.601 60.0627V57.2327C145.601 56.5227 146.191 55.9327 146.901 55.9327C147.611 55.9327 148.201 56.5227 148.201 57.2327V60.1827C148.201 62.4827 148.611 64.3727 149.621 65.7827C150.621 67.2027 152.161 68.0227 154.461 68.0227C159.001 68.0227 160.711 64.7227 160.711 60.0027V56.8127C160.711 52.5027 158.591 50.0327 154.581 49.8527H153.051C152.341 49.8527 151.811 49.3227 151.811 48.6127C151.811 47.9027 152.341 47.3727 153.051 47.3727H154.701C158.471 47.1327 160.721 44.4827 160.721 40.4727V39.0027C160.721 34.2827 159.011 30.9827 154.471 30.9827C149.931 30.9827 148.221 34.2827 148.221 38.7627V40.2927C148.221 41.0027 147.631 41.5927 146.921 41.5927C146.211 41.5927 145.621 41.0027 145.621 40.2927V38.9327C145.621 35.9227 146.271 33.3327 147.741 31.4427C149.161 29.6127 151.401 28.4927 154.521 28.4927L154.501 28.5127Z" fill="#1D1D1B"/>
<path d="M194.781 31.2827H185.871C185.521 31.2827 185.281 31.5227 185.281 31.8727L184.221 60.0027C184.041 62.8327 183.811 65.3127 182.801 67.1427C181.801 68.9727 180.031 70.0927 176.961 70.1527C176.251 70.1527 175.661 69.5627 175.661 68.8527C175.661 68.2027 176.251 67.6127 176.901 67.6127C179.261 67.5527 180.091 66.5527 180.671 65.3727C181.321 64.0127 181.441 62.1327 181.501 60.0627L182.681 30.5127C182.681 29.5727 183.511 28.8027 184.451 28.8027H196.361C197.361 28.8027 198.131 29.5727 198.131 30.5727V68.6727C198.131 69.4427 197.481 70.0927 196.771 70.0927C196.001 70.0927 195.351 69.4427 195.351 68.6727V31.8727C195.351 31.5227 195.111 31.2827 194.761 31.2827H194.781Z" fill="#1D1D1B"/>
<path d="M202.741 60.0627V38.9527C202.741 35.9427 203.451 33.3527 204.921 31.4627C206.341 29.6327 208.641 28.5127 211.761 28.5127C214.881 28.5127 217.251 29.6327 218.721 31.4627C220.191 33.3527 220.901 35.9427 220.901 38.9527V60.0627C220.901 63.0727 220.191 65.6627 218.721 67.4927C217.251 69.3827 214.891 70.5027 211.761 70.5027C208.631 70.5027 206.331 69.3827 204.921 67.4927C203.451 65.6627 202.741 63.0727 202.741 60.0627ZM205.451 38.7727V60.2427C205.451 64.7227 207.221 68.0227 211.761 68.0227C216.301 68.0227 218.191 64.7227 218.191 60.2427V38.7727C218.191 34.2927 216.301 30.9927 211.761 30.9927C207.221 30.9927 205.451 34.2927 205.451 38.7727Z" fill="#1D1D1B"/>
<path d="M233.881 70.1527C233.111 70.1527 232.521 69.5627 232.521 68.7927V32.2327C232.521 31.7627 232.111 31.3527 231.641 31.3527H225.331C224.621 31.3527 224.091 30.8227 224.091 30.1127C224.091 29.4027 224.621 28.8727 225.331 28.8727H242.371C243.081 28.8727 243.611 29.4027 243.611 30.1127C243.611 30.8227 243.081 31.3527 242.371 31.3527H236.121C235.651 31.3527 235.241 31.7627 235.241 32.2327V68.7927C235.241 69.5627 234.651 70.1527 233.881 70.1527Z" fill="#1D1D1B"/>
<path d="M248.091 60.0627V38.9527C248.091 35.9427 248.801 33.3527 250.271 31.4627C251.691 29.6327 253.991 28.5127 257.111 28.5127C260.231 28.5127 262.601 29.6327 264.071 31.4627C265.541 33.3527 266.251 35.9427 266.251 38.9527V60.0627C266.251 63.0727 265.541 65.6627 264.071 67.4927C262.601 69.3827 260.241 70.5027 257.111 70.5027C253.981 70.5027 251.681 69.3827 250.271 67.4927C248.801 65.6627 248.091 63.0727 248.091 60.0627ZM250.801 38.7727V60.2427C250.801 64.7227 252.571 68.0227 257.111 68.0227C261.651 68.0227 263.541 64.7227 263.541 60.2427V38.7727C263.541 34.2927 261.651 30.9927 257.111 30.9927C252.571 30.9927 250.801 34.2927 250.801 38.7727Z" fill="#1D1D1B"/>
<path d="M279.461 28.5127C282.591 28.5127 284.831 29.6327 286.301 31.4627C287.721 33.3527 288.361 35.9427 288.361 38.9527V41.0727C288.361 41.7827 287.771 42.3727 287.061 42.3727C286.351 42.3727 285.761 41.7827 285.761 41.0727V38.7727C285.761 36.5927 285.351 34.6427 284.341 33.2327C283.341 31.8127 281.801 30.9927 279.501 30.9927C277.201 30.9927 275.671 31.8227 274.661 33.2327C273.661 34.6527 273.241 36.5927 273.241 38.7727V60.2427C273.241 62.4227 273.651 64.3727 274.661 65.7227C275.661 67.1427 277.201 67.9627 279.501 67.9627C281.801 67.9627 283.331 67.1327 284.341 65.7227C285.341 64.3627 285.761 62.4227 285.761 60.2427V56.6427C285.761 55.9327 286.351 55.3427 287.061 55.3427C287.771 55.3427 288.361 55.9327 288.361 56.6427V60.0627C288.361 63.0727 287.711 65.6627 286.301 67.4927C284.831 69.3827 282.581 70.5027 279.461 70.5027C276.341 70.5027 274.091 69.3827 272.681 67.4927C271.211 65.6627 270.561 63.0727 270.561 60.0627V38.9527C270.561 35.9427 271.211 33.3527 272.681 31.4627C274.101 29.6327 276.341 28.5127 279.461 28.5127Z" fill="#1D1D1B"/>
<defs>
<linearGradient id="paint0_linear_2_4" x1="45.4614" y1="7.69274" x2="45.4614" y2="86.9027" gradientUnits="userSpaceOnUse">
<stop stop-color="#DC7C93"/>
<stop offset="0.09" stop-color="#D37A93"/>
<stop offset="0.24" stop-color="#BC7594"/>
<stop offset="0.43" stop-color="#976D95"/>
<stop offset="0.65" stop-color="#636197"/>
<stop offset="0.89" stop-color="#21539A"/>
<stop offset="1" stop-color="#004C9C"/>
</linearGradient>
<linearGradient id="paint1_linear_2_4" x1="58.2914" y1="7.69273" x2="58.2914" y2="86.9027" gradientUnits="userSpaceOnUse">
<stop stop-color="#DC7C93"/>
<stop offset="0.09" stop-color="#D37A93"/>
<stop offset="0.24" stop-color="#BC7594"/>
<stop offset="0.43" stop-color="#976D95"/>
<stop offset="0.65" stop-color="#636197"/>
<stop offset="0.89" stop-color="#21539A"/>
<stop offset="1" stop-color="#004C9C"/>
</linearGradient>
<linearGradient id="paint2_linear_2_4" x1="51.4814" y1="7.69274" x2="51.4814" y2="86.9027" gradientUnits="userSpaceOnUse">
<stop stop-color="#DC7C93"/>
<stop offset="0.09" stop-color="#D37A93"/>
<stop offset="0.24" stop-color="#BC7594"/>
<stop offset="0.43" stop-color="#976D95"/>
<stop offset="0.65" stop-color="#636197"/>
<stop offset="0.89" stop-color="#21539A"/>
<stop offset="1" stop-color="#004C9C"/>
</linearGradient>
<linearGradient id="paint3_linear_2_4" x1="32.3414" y1="7.69275" x2="32.3414" y2="86.9027" gradientUnits="userSpaceOnUse">
<stop stop-color="#DC7C93"/>
<stop offset="0.09" stop-color="#D37A93"/>
<stop offset="0.24" stop-color="#BC7594"/>
<stop offset="0.43" stop-color="#976D95"/>
<stop offset="0.65" stop-color="#636197"/>
<stop offset="0.89" stop-color="#21539A"/>
<stop offset="1" stop-color="#004C9C"/>
</linearGradient>
<linearGradient id="paint4_linear_2_4" x1="26.7914" y1="7.69275" x2="26.7914" y2="86.9028" gradientUnits="userSpaceOnUse">
<stop stop-color="#DC7C93"/>
<stop offset="0.09" stop-color="#D37A93"/>
<stop offset="0.24" stop-color="#BC7594"/>
<stop offset="0.43" stop-color="#976D95"/>
<stop offset="0.65" stop-color="#636197"/>
<stop offset="0.89" stop-color="#21539A"/>
<stop offset="1" stop-color="#004C9C"/>
</linearGradient>
<linearGradient id="paint5_linear_2_4" x1="71.4014" y1="7.69275" x2="71.4014" y2="86.9027" gradientUnits="userSpaceOnUse">
<stop stop-color="#DC7C93"/>
<stop offset="0.09" stop-color="#D37A93"/>
<stop offset="0.24" stop-color="#BC7594"/>
<stop offset="0.43" stop-color="#976D95"/>
<stop offset="0.65" stop-color="#636197"/>
<stop offset="0.89" stop-color="#21539A"/>
<stop offset="1" stop-color="#004C9C"/>
</linearGradient>
<linearGradient id="paint6_linear_2_4" x1="76.9514" y1="7.69276" x2="76.9514" y2="86.9028" gradientUnits="userSpaceOnUse">
<stop stop-color="#DC7C93"/>
<stop offset="0.09" stop-color="#D37A93"/>
<stop offset="0.24" stop-color="#BC7594"/>
<stop offset="0.43" stop-color="#976D95"/>
<stop offset="0.65" stop-color="#636197"/>
<stop offset="0.89" stop-color="#21539A"/>
<stop offset="1" stop-color="#004C9C"/>
</linearGradient>
</defs>
	</symbol>

<!-- logo-f -->
<symbol id="logo-f" viewBox="0 0 289 86">  
<path d="M39.04 47.85C38.13 47.85 37.4 47.11 37.4 46.21V34.53C37.4 34.02 37.63 33.54 38.04 33.23L50.88 23.28C51.6 22.72 52.63 22.85 53.18 23.57C53.74 24.29 53.61 25.32 52.89 25.87L40.69 35.33V46.21C40.69 47.12 39.95 47.85 39.05 47.85H39.04Z" fill="white"/>
<path d="M51.87 78.9901C50.96 78.9901 50.23 78.2501 50.23 77.3501V17.2301C50.23 16.6001 50.59 16.0301 51.15 15.7601C51.71 15.4801 52.38 15.5501 52.88 15.9401L65.72 25.8901C66.12 26.2001 66.36 26.6801 66.36 27.1901V46.7301C66.36 47.6401 65.62 48.3701 64.72 48.3701C63.82 48.3701 63.08 47.6301 63.08 46.7301V27.9901L53.53 20.5801V77.3501C53.53 78.2601 52.79 78.9901 51.89 78.9901H51.87Z" fill="white"/>
<path d="M57.9001 57.4101C56.9901 57.4101 56.2601 56.6701 56.2601 55.7701V4.99005L46.7101 12.4001V55.0501C46.7101 55.9601 45.9701 56.6901 45.0701 56.6901C44.1701 56.6901 43.4301 55.9501 43.4301 55.0501V11.6001C43.4301 11.0901 43.6601 10.6101 44.0701 10.3001L56.8901 0.340052C57.3801 -0.0399476 58.0601 -0.109948 58.6201 0.160052C59.1801 0.440052 59.5401 1.01005 59.5401 1.63005V55.7601C59.5401 56.6701 58.8001 57.4001 57.9001 57.4001V57.4101Z" fill="white"/>
<path d="M51.81 83.7401C51.69 83.7401 51.57 83.7301 51.45 83.7001C35.15 80.0401 23 69.0601 16.32 51.9501C11.32 39.1501 11.14 27.5901 11.13 27.1101C11.13 26.5401 11.41 26.0101 11.89 25.7101C12.37 25.4001 12.97 25.3701 13.48 25.6101C36.16 36.4001 45.82 51.1701 49.93 61.6601C54.42 73.1101 53.48 81.9201 53.44 82.2901C53.39 82.7501 53.14 83.1701 52.76 83.4401C52.48 83.6401 52.15 83.7401 51.81 83.7401ZM14.58 29.8001C14.93 33.9201 16.02 42.1701 19.42 50.8401C25.51 66.3801 35.88 76.1901 50.26 80.0201C50.28 76.9401 49.87 70.4101 46.81 62.6801C43.05 53.1801 34.41 39.9401 14.58 29.8001Z" fill="white"/>
<path d="M40.82 85.0801C25.37 85.0801 15.66 77.9301 9.94 71.2201C2.39 62.3401 0.130004 52.5501 0.0400038 52.1301C-0.0699962 51.6401 0.0400038 51.1301 0.360004 50.7401C0.670004 50.3501 1.14 50.1301 1.64 50.1301C25.82 50.2001 38.63 58.7801 45.12 65.9701C52.23 73.8501 53.5 81.6901 53.55 82.0201C53.68 82.8901 53.11 83.7101 52.25 83.8801C48.13 84.7101 44.32 85.0701 40.82 85.0701V85.0801ZM3.83 53.4501C4.87 56.6801 7.43 63.2301 12.53 69.1801C21.58 79.7501 34.16 83.7201 49.94 80.9801C49.23 78.4601 47.29 73.2201 42.56 68.0301C34.24 58.9101 20.88 53.8901 3.84 53.4501H3.83Z" fill="white"/>
<path d="M51.93 83.7401C51.59 83.7401 51.26 83.6401 50.98 83.4401C50.6 83.1701 50.35 82.7501 50.3 82.2901C50.26 81.9201 49.32 73.1101 53.81 61.6601C57.92 51.1701 67.58 36.3901 90.26 25.6101C90.77 25.3701 91.37 25.4001 91.85 25.7101C92.33 26.0201 92.61 26.5501 92.61 27.1101C92.61 27.6001 92.42 39.1501 87.42 51.9501C80.74 69.0601 68.6 80.0401 52.29 83.7001C52.17 83.7301 52.05 83.7401 51.93 83.7401ZM89.16 29.8001C69.33 39.9401 60.69 53.1801 56.93 62.6801C53.87 70.4101 53.47 76.9401 53.48 80.0201C67.86 76.1901 78.23 66.3801 84.32 50.8401C87.72 42.1701 88.81 33.9201 89.16 29.8001Z" fill="white"/>
<path d="M62.92 85.0801C59.41 85.0801 55.61 84.7101 51.49 83.8901C50.63 83.7201 50.06 82.9001 50.19 82.0301C50.24 81.7001 51.51 73.8601 58.62 65.9801C65.11 58.7901 77.92 50.2101 102.1 50.1401C102.6 50.1401 103.07 50.3701 103.38 50.7501C103.69 51.1401 103.81 51.6501 103.7 52.1401C103.61 52.5501 101.35 62.3501 93.8 71.2201C88.08 77.9401 78.37 85.0801 62.92 85.0801ZM53.8 80.9801C69.58 83.7201 82.16 79.7601 91.21 69.1801C96.3 63.2301 98.86 56.6801 99.9 53.4501C82.86 53.8901 69.5 58.9101 61.18 68.0301C56.45 73.2101 54.51 78.4501 53.8 80.9801Z" fill="white"/>
<path d="M132.33 28.51C135.46 28.51 137.7 29.63 139.17 31.46C140.59 33.35 141.23 35.94 141.23 38.95V41.07C141.23 41.78 140.64 42.37 139.93 42.37C139.22 42.37 138.63 41.78 138.63 41.07V38.77C138.63 36.59 138.22 34.64 137.22 33.23C136.22 31.81 134.68 30.99 132.38 30.99C130.08 30.99 128.55 31.82 127.54 33.23C126.54 34.65 126.12 36.59 126.12 38.77V60.24C126.12 62.42 126.53 64.37 127.54 65.72C128.54 67.14 130.08 67.96 132.38 67.96C134.68 67.96 136.21 67.13 137.22 65.72C138.22 64.36 138.63 62.42 138.63 60.24V56.64C138.63 55.93 139.22 55.34 139.93 55.34C140.64 55.34 141.23 55.93 141.23 56.64V60.06C141.23 63.07 140.58 65.66 139.17 67.49C137.7 69.38 135.46 70.5 132.33 70.5C129.2 70.5 126.96 69.38 125.55 67.49C124.08 65.66 123.43 63.07 123.43 60.06V38.95C123.43 35.94 124.08 33.35 125.55 31.46C126.97 29.63 129.21 28.51 132.33 28.51Z" fill="white"/>
<path d="M154.51 28.51C157.63 28.51 159.88 29.63 161.35 31.46C162.76 33.35 163.41 35.94 163.41 38.95V39.95C163.41 43.66 161.82 46.67 158.87 48.09C158.46 48.33 158.46 48.68 158.87 48.86C162 50.22 163.41 53.16 163.41 56.88V60.06C163.41 63.07 162.76 65.66 161.35 67.49C159.88 69.38 157.63 70.5 154.51 70.5C151.39 70.5 149.14 69.38 147.73 67.49C146.26 65.66 145.61 63.07 145.61 60.06V57.23C145.61 56.52 146.2 55.93 146.91 55.93C147.62 55.93 148.21 56.52 148.21 57.23V60.18C148.21 62.48 148.62 64.37 149.63 65.78C150.63 67.2 152.17 68.02 154.47 68.02C159.01 68.02 160.72 64.72 160.72 60V56.81C160.72 52.51 158.6 50.03 154.59 49.85H153.06C152.35 49.85 151.82 49.32 151.82 48.61C151.82 47.9 152.35 47.37 153.06 47.37H154.71C158.49 47.13 160.73 44.48 160.73 40.47V39C160.73 34.28 159.02 30.98 154.48 30.98C149.94 30.98 148.23 34.28 148.23 38.77V40.3C148.23 41.01 147.64 41.6 146.93 41.6C146.22 41.6 145.63 41.01 145.63 40.3V38.94C145.63 35.93 146.28 33.34 147.75 31.45C149.17 29.62 151.41 28.5 154.53 28.5L154.51 28.51Z" fill="white"/>
<path d="M194.78 31.2801H185.87C185.52 31.2801 185.28 31.5201 185.28 31.8701L184.22 60C184.04 62.83 183.81 65.31 182.8 67.14C181.79 68.9701 180.03 70.09 176.96 70.1501C176.25 70.1501 175.66 69.56 175.66 68.85C175.66 68.2 176.25 67.6101 176.9 67.6101C179.26 67.55 180.09 66.5501 180.68 65.3701C181.33 64.0101 181.45 62.1301 181.51 60.0601L182.69 30.51C182.69 29.57 183.51 28.8 184.46 28.8H196.37C197.37 28.8 198.14 29.57 198.14 30.57V68.67C198.14 69.44 197.49 70.09 196.78 70.09C196.01 70.09 195.37 69.44 195.37 68.67V31.8701C195.37 31.5201 195.13 31.2801 194.78 31.2801Z" fill="white"/>
<path d="M202.74 60.06V38.95C202.74 35.94 203.45 33.35 204.92 31.46C206.33 29.63 208.63 28.51 211.76 28.51C214.89 28.51 217.25 29.63 218.72 31.46C220.19 33.35 220.9 35.94 220.9 38.95V60.06C220.9 63.07 220.19 65.66 218.72 67.49C217.25 69.38 214.89 70.5 211.76 70.5C208.63 70.5 206.33 69.38 204.92 67.49C203.45 65.66 202.74 63.07 202.74 60.06ZM205.45 38.77V60.24C205.45 64.72 207.22 68.03 211.76 68.03C216.3 68.03 218.19 64.73 218.19 60.24V38.77C218.19 34.29 216.3 30.98 211.76 30.98C207.22 30.98 205.45 34.28 205.45 38.77Z" fill="white"/>
<path d="M233.88 70.1501C233.11 70.1501 232.52 69.5601 232.52 68.7901V32.2301C232.52 31.7601 232.11 31.3501 231.64 31.3501H225.33C224.62 31.3501 224.09 30.8201 224.09 30.1101C224.09 29.4001 224.62 28.8701 225.33 28.8701H242.37C243.08 28.8701 243.61 29.4001 243.61 30.1101C243.61 30.8201 243.08 31.3501 242.37 31.3501H236.12C235.65 31.3501 235.24 31.7601 235.24 32.2301V68.7901C235.24 69.5601 234.65 70.1501 233.88 70.1501Z" fill="white"/>
<path d="M248.09 60.06V38.95C248.09 35.94 248.8 33.35 250.27 31.46C251.68 29.63 253.98 28.51 257.11 28.51C260.24 28.51 262.6 29.63 264.07 31.46C265.54 33.35 266.25 35.94 266.25 38.95V60.06C266.25 63.07 265.54 65.66 264.07 67.49C262.6 69.38 260.24 70.5 257.11 70.5C253.98 70.5 251.68 69.38 250.27 67.49C248.8 65.66 248.09 63.07 248.09 60.06ZM250.8 38.77V60.24C250.8 64.72 252.57 68.03 257.11 68.03C261.65 68.03 263.54 64.73 263.54 60.24V38.77C263.54 34.29 261.65 30.98 257.11 30.98C252.57 30.98 250.8 34.28 250.8 38.77Z" fill="white"/>
<path d="M279.46 28.51C282.59 28.51 284.83 29.63 286.3 31.46C287.72 33.35 288.36 35.94 288.36 38.95V41.07C288.36 41.78 287.77 42.37 287.06 42.37C286.35 42.37 285.76 41.78 285.76 41.07V38.77C285.76 36.59 285.35 34.64 284.35 33.23C283.35 31.81 281.81 30.99 279.51 30.99C277.21 30.99 275.68 31.82 274.67 33.23C273.67 34.65 273.25 36.59 273.25 38.77V60.24C273.25 62.42 273.66 64.37 274.67 65.72C275.67 67.14 277.21 67.96 279.51 67.96C281.81 67.96 283.34 67.13 284.35 65.72C285.35 64.36 285.76 62.42 285.76 60.24V56.64C285.76 55.93 286.35 55.34 287.06 55.34C287.77 55.34 288.36 55.93 288.36 56.64V60.06C288.36 63.07 287.71 65.66 286.3 67.49C284.83 69.38 282.59 70.5 279.46 70.5C276.33 70.5 274.09 69.38 272.68 67.49C271.21 65.66 270.56 63.07 270.56 60.06V38.95C270.56 35.94 271.21 33.35 272.68 31.46C274.1 29.63 276.34 28.51 279.46 28.51Z" fill="white"/>
</symbol>

<!-- info-01 -->
<symbol id="info-01" viewBox="0 0 145 145">  
<g clip-path="url(#clip0_2_25)">
<path d="M72.5 145C112.541 145 145 112.541 145 72.5C145 32.4594 112.541 0 72.5 0C32.4594 0 0 32.4594 0 72.5C0 112.541 32.4594 145 72.5 145Z" fill="white"/>
<path d="M72.5 123.37C100.595 123.37 123.37 100.595 123.37 72.5C123.37 44.4053 100.595 21.63 72.5 21.63C44.4053 21.63 21.63 44.4053 21.63 72.5C21.63 100.595 44.4053 123.37 72.5 123.37Z" fill="url(#paint0_linear_2_25)"/>
<path d="M48.5038 102.21C48.3538 102.02 48.1438 101.85 48.0638 101.63C47.8238 101 48.2838 100.47 49.0638 100.47C53.3738 100.47 57.6938 100.47 62.0038 100.47C62.2338 100.47 62.4638 100.47 62.7838 100.47C62.7838 99.64 62.7938 98.84 62.7738 98.04C62.7738 97.92 62.5938 97.76 62.4638 97.71C59.2238 96.35 56.6938 94.16 54.8238 91.19C54.7138 91.01 54.4038 90.87 54.1838 90.87C52.7138 90.84 51.2438 90.87 49.7738 90.85C48.5938 90.85 48.0138 90.29 48.0138 89.12C48.0038 86.32 48.0038 83.51 48.0138 80.71C48.0138 79.57 48.6138 79.01 49.7438 79.01C50.5738 79.01 51.4038 79 52.2438 79.01C52.5638 79.01 52.6638 78.91 52.7138 78.59C53.6338 73.39 56.4038 69.51 61.0138 66.94C61.3638 66.74 61.4938 66.53 61.4938 66.13C61.4738 64.25 61.4838 62.38 61.4938 60.5C61.4938 59.05 62.4338 58.35 63.7838 58.86C64.6638 59.19 65.5238 59.6 66.3338 60.09C67.1238 60.57 67.8238 61.18 68.4738 61.66C69.0738 60.87 69.7038 60.06 70.3138 59.23C70.4138 59.09 70.4638 58.88 70.4738 58.71C70.4938 58.17 70.4738 57.63 70.4838 57.09C70.5038 56.47 70.8438 56.11 71.3938 56.12C71.9238 56.13 72.2138 56.46 72.2538 57.08C72.2638 57.33 72.2538 57.57 72.2538 57.85C73.0338 57.64 73.7538 57.44 74.5238 57.23C74.5238 56.39 74.5238 55.52 74.5238 54.66C74.5238 53.99 74.8638 53.59 75.3938 53.59C75.9338 53.59 76.2638 54 76.2738 54.66C76.2738 55.53 76.2738 56.4 76.2738 57.26C76.9738 57.46 77.6338 57.65 78.3338 57.85C78.3538 57.71 78.3538 57.56 78.3938 57.42C78.5238 56.96 78.8038 56.68 79.3138 56.71C79.8138 56.74 80.1738 57.05 80.1038 57.52C79.9538 58.64 80.4638 59.41 81.1438 60.23C82.2038 61.5 82.6338 63.05 82.5338 64.72C82.5038 65.16 82.6138 65.34 83.0838 65.45C84.9438 65.87 86.6738 66.63 88.2538 67.7C88.8338 68.09 88.9938 68.61 88.6838 69.06C88.3738 69.52 87.8838 69.58 87.3138 69.2C85.7338 68.15 84.0238 67.44 82.1738 67.06C81.6838 67.84 81.2038 68.62 80.6738 69.47C80.9038 69.47 81.1338 69.47 81.3738 69.47C81.9938 69.48 82.3938 69.82 82.3938 70.33C82.3938 70.86 81.9838 71.21 81.3238 71.21C78.4438 71.21 75.5538 71.21 72.6738 71.21C71.6838 71.21 70.7038 71.21 69.7138 71.21C69.0038 71.21 68.5938 70.88 68.6038 70.32C68.6038 69.79 68.9938 69.49 69.6838 69.46C69.7638 69.46 69.8338 69.45 69.9638 69.44C69.8738 69.3 69.8138 69.19 69.7338 69.09C68.5938 67.73 68.0738 66.15 68.0238 64.4C68.0238 64.2 67.9938 63.96 67.8838 63.81C66.7038 62.26 65.1438 61.24 63.2438 60.54V62.26C63.2438 63.77 63.2138 65.28 63.2538 66.79C63.2738 67.51 63.0038 67.91 62.3638 68.23C58.6038 70.09 56.0838 73.04 54.8638 77.06C54.5938 77.94 54.4738 78.87 54.3138 79.78C54.1938 80.48 53.9538 80.73 53.2638 80.74C52.1238 80.74 50.9838 80.74 49.8138 80.74V89.1C51.1538 89.1 52.4838 89.1 53.8138 89.1C56.0238 89.1 55.4838 88.92 56.5538 90.57C58.2838 93.26 60.6838 95.14 63.6638 96.27C64.4538 96.57 64.5438 96.69 64.5438 97.55C64.5438 98.49 64.5438 99.44 64.5438 100.42C64.7038 100.44 64.8338 100.47 64.9638 100.47C66.5138 100.47 68.0638 100.47 69.6038 100.47C69.9438 100.47 70.0738 100.37 70.1138 100.02C70.1838 99.33 70.3038 98.64 70.4138 97.96C70.4938 97.44 70.8138 97.19 71.3338 97.18C71.7938 97.18 72.2638 97.16 72.7238 97.18C73.2738 97.2 73.6338 97.54 73.6538 98.02C73.6738 98.5 73.2738 98.9 72.7238 98.94C72.5138 98.95 72.3038 98.94 72.0538 98.94C71.9738 99.45 71.8938 99.92 71.8138 100.43H79.2638C79.1838 99.93 79.1138 99.45 79.0338 98.94C78.3238 98.94 77.6638 98.94 77.0138 98.94C76.3638 98.94 75.9438 98.58 75.9338 98.05C75.9338 97.52 76.3338 97.18 77.0038 97.17C77.8938 97.16 78.7838 97.15 79.6738 97.15C80.2238 97.15 80.6038 97.39 80.6838 97.97C80.7838 98.66 80.8738 99.35 81.0038 100.03C81.0338 100.19 81.2138 100.44 81.3238 100.44C83.0438 100.47 84.7538 100.46 86.5438 100.46C86.5438 99.24 86.6138 98.06 86.5238 96.89C86.4338 95.73 86.8138 95.03 87.7838 94.31C91.6338 91.49 93.5438 87.62 93.6538 82.85C93.7138 80.22 93.5638 77.62 92.3638 75.22C91.7938 74.09 91.0238 73.06 90.3838 71.96C90.2238 71.68 90.0838 71.26 90.1638 70.97C90.3738 70.27 91.1638 70.2 91.6838 70.8C92.9038 72.22 93.7938 73.84 94.4538 75.59C95.3738 78.03 95.4938 80.56 95.4038 83.12C95.2238 88.48 92.9438 92.72 88.6538 95.91C88.5038 96.02 88.3138 96.22 88.3138 96.39C88.2838 97.72 88.2938 99.05 88.2938 100.45C88.9838 100.45 89.6338 100.45 90.2938 100.45C91.5938 100.45 92.8838 100.45 94.1838 100.45C94.6738 100.45 95.1338 100.47 95.3538 100.99C95.5638 101.5 95.2738 101.87 94.9238 102.2H48.4838L48.5038 102.21ZM75.2738 69.47C75.6638 69.47 76.0538 69.42 76.4338 69.47C77.4738 69.62 78.2738 69.15 78.9838 68.49C80.4038 67.15 81.0038 65.52 80.6838 63.57C80.3238 61.37 78.6238 59.58 76.4938 59.14C74.2138 58.67 71.9238 59.6 70.6938 61.5C69.4638 63.41 69.5138 65.87 70.8838 67.69C71.7438 68.83 72.7738 69.68 74.3438 69.47C74.6438 69.43 74.9638 69.47 75.2738 69.47Z" fill="white"/>
<path d="M65.33 42.79C68.45 42.79 71.19 44.72 72.21 47.63C72.49 48.42 72.33 48.95 71.77 49.14C71.23 49.32 70.82 49.01 70.54 48.23C69.76 46.04 67.71 44.55 65.43 44.53C63.15 44.51 61.04 45.96 60.23 48.11C59.22 50.8 60.47 53.8 63.11 55C65.73 56.2 68.82 55.17 70.19 52.63C70.28 52.46 70.36 52.28 70.44 52.11C70.72 51.54 71.17 51.32 71.66 51.53C72.14 51.73 72.31 52.23 72.06 52.81C71.04 55.19 69.24 56.67 66.71 57.14C62.12 57.99 58.03 54.45 58.12 49.78C58.19 45.95 61.46 42.78 65.34 42.78L65.33 42.79Z" fill="white"/>
<path d="M54.26 56.96C56.38 56.96 58.18 58.73 58.2 60.86C58.22 63 56.39 64.83 54.25 64.81C52.12 64.79 50.34 63 50.34 60.88C50.34 58.76 52.14 56.97 54.26 56.96ZM54.28 63.01C55.48 63.01 56.4 62.08 56.4 60.89C56.4 59.69 55.49 58.77 54.29 58.76C53.07 58.76 52.13 59.69 52.15 60.92C52.16 62.12 53.09 63.02 54.29 63.02L54.28 63.01Z" fill="white"/>
<path d="M92.51 57.02C92.45 59.19 90.68 60.91 88.55 60.87C86.36 60.83 84.65 59.01 84.7 56.78C84.74 54.71 86.61 52.95 88.7 53.02C90.86 53.09 92.57 54.88 92.52 57.02H92.51ZM90.74 56.92C90.74 55.73 89.79 54.81 88.59 54.82C87.4 54.82 86.45 55.78 86.45 56.95C86.45 58.14 87.43 59.1 88.65 59.08C89.84 59.06 90.75 58.12 90.74 56.92Z" fill="white"/>
<path d="M69.27 50.04C69.27 52.23 67.52 53.94 65.31 53.93C63.17 53.92 61.46 52.17 61.47 49.98C61.47 47.83 63.23 46.1 65.4 46.12C67.58 46.14 69.28 47.86 69.27 50.03V50.04ZM67.51 50.01C67.51 48.83 66.55 47.89 65.37 47.89C64.2 47.89 63.22 48.85 63.21 50.01C63.21 51.18 64.23 52.2 65.4 52.18C66.56 52.16 67.52 51.17 67.51 50.01Z" fill="white"/>
<path d="M58.44 80.63C58.44 79.92 58.44 79.2 58.44 78.49C58.45 77.91 58.81 77.54 59.31 77.55C59.81 77.55 60.17 77.94 60.18 78.51C60.18 79.98 60.19 81.44 60.18 82.91C60.18 83.47 59.79 83.86 59.3 83.86C58.81 83.86 58.45 83.47 58.44 82.89C58.43 82.14 58.44 81.38 58.44 80.63Z" fill="white"/>
<path d="M80.87 54.17C80.87 54.66 80.49 55.06 80.02 55.07C79.55 55.07 79.13 54.67 79.12 54.2C79.11 53.73 79.51 53.32 79.99 53.31C80.5 53.31 80.87 53.66 80.87 54.16V54.17Z" fill="white"/>
<path d="M77.02 50.93C77.02 51.41 76.64 51.82 76.16 51.83C75.68 51.84 75.29 51.46 75.28 50.97C75.27 50.47 75.63 50.09 76.13 50.09C76.63 50.09 77.02 50.45 77.03 50.94L77.02 50.93Z" fill="white"/>
<path d="M75.99 68.36C73.76 68.3 72.08 66.51 72.16 64.28C72.23 62.23 74.08 60.51 76.15 60.56C78.3 60.61 80.05 62.43 79.98 64.54C79.91 66.72 78.14 68.42 75.99 68.36ZM76.05 62.36C74.86 62.36 73.9 63.32 73.91 64.49C73.92 65.66 74.89 66.59 76.08 66.59C77.27 66.59 78.2 65.65 78.2 64.46C78.2 63.27 77.26 62.35 76.05 62.36Z" fill="white"/>
</g>
<defs>
<linearGradient id="paint0_linear_2_25" x1="81.1" y1="32.24" x2="48.34" y2="185.58" gradientUnits="userSpaceOnUse">
<stop stop-color="#DC7C93"/>
<stop offset="0.09" stop-color="#D37A93"/>
<stop offset="0.24" stop-color="#BC7594"/>
<stop offset="0.43" stop-color="#976D95"/>
<stop offset="0.65" stop-color="#636197"/>
<stop offset="0.89" stop-color="#21539A"/>
<stop offset="1" stop-color="#004C9C"/>
</linearGradient>
<clipPath id="clip0_2_25">
<rect width="145" height="145" fill="white"/>
</clipPath>
</defs>
</symbol>

</svg>