<svg width="11" height="25" fill="none" xmlns="http://www.w3.org/2000/svg"><g clip-path="url(#clip0_19_11)"><path d="M10.55 21.18c-.03-.08-.98-3.24-1.2-3.76-.09-.21-.19-.43-.36-.61-.27-.29-.65-.4-1.11-.33-.52.08-1.9.14-2.32.15-.05 0-.12 0-.14-.02-.02-.02-.19-.48-.24-.63-1.16-3.26-.38-7.29-.19-7.92.03-.09.05-.12.05-.12.04-.02.19-.02.27-.01.23 0 .5 0 .76-.02.13 0 .25-.01.37-.02.38-.02.61-.09.89-.17l.14-.04c.66-.19.86-.74.92-.92.05-.15 1.41-3.12 1.55-3.43.34-.76.31-1.31-.09-1.74l-.16-.16C9.49 1.23 8.31.26 7.55.06c-.81-.21-2.68-.12-4.51 1.59C1.38 3.22.8 5.72.63 6.72c0 .03-.02.07-.03.14-.91 4.07-.77 7.96.39 10.95 1.12 2.88 1.95 3.96 2.47 4.53.22.24.42.41.59.56l.11.1c.74.66 3.05 1.49 4.39.91 1.06-.45 2-1.19 2.13-1.67.09-.33 0-.65-.14-1.06h.01z" fill="#fff"/></g><defs><clipPath id="clip0_19_11"><path fill="#fff" d="M0 0h10.72v24.11H0z"/></clipPath></defs></svg>